{
  "accessors": [
    {
      "bufferView": 2,
      "componentType": 5126,
      "count": 9517,
      "max": [
        21.41457748413086,
        21.763580322265625,
        52.784828186035156
      ],
      "min": [
        -19.999359130859375,
        -19.65035629272461,
        -2.227846145629883
      ],
      "type": "VEC3"
    },
    {
      "bufferView": 2,
      "byteOffset": 114204,
      "componentType": 5126,
      "count": 9517,
      "max": [
        1.0,
        1.0,
        1.0
      ],
      "min": [
        -1.0,
        -1.0,
        -1.0
      ],
      "type": "VEC3"
    },
    {
      "bufferView": 3,
      "componentType": 5126,
      "count": 9517,
      "max": [
        1.0,
        1.0,
        1.0,
        1.0
      ],
      "min": [
        -1.0,
        -1.0,
        -1.0,
        -1.0
      ],
      "type": "VEC4"
    },
    {
      "bufferView": 1,
      "componentType": 5126,
      "count": 9517,
      "max": [
        0.9808055758476257,
        0.998046875
      ],
      "min": [
        0.001953131053596735,
        0.001953125
      ],
      "type": "VEC2"
    },
    {
      "bufferView": 0,
      "componentType": 5125,
      "count": 50808,
      "type": "SCALAR"
    }
  ],
  "asset": {
    "extras": {
      "author": "rastafawel (https://sketchfab.com/rastafawel)",
      "license": "CC-BY-4.0 (http://creativecommons.org/licenses/by/4.0/)",
      "source": "https://sketchfab.com/3d-models/fusee-621d20b1e2be4daa879da42207473d17",
      "title": "Fusée"
    },
    "generator": "Sketchfab-12.65.0",
    "version": "2.0"
  },
  "bufferViews": [
    {
      "buffer": 0,
      "byteLength": 203232,
      "name": "floatBufferViews",
      "target": 34963
    },
    {
      "buffer": 0,
      "byteLength": 76136,
      "byteOffset": 203232,
      "byteStride": 8,
      "name": "floatBufferViews",
      "target": 34962
    },
    {
      "buffer": 0,
      "byteLength": 228408,
      "byteOffset": 279368,
      "byteStride": 12,
      "name": "floatBufferViews",
      "target": 34962
    },
    {
      "buffer": 0,
      "byteLength": 152272,
      "byteOffset": 507776,
      "byteStride": 16,
      "name": "floatBufferViews",
      "target": 34962
    }
  ],
  "buffers": [
    {
      "byteLength": 660048,
      "uri": "scene.bin"
    }
  ],
  "images": [
    {
      "uri": "textures/Material_32_baseColor.jpeg"
    },
    {
      "uri": "textures/Material_32_metallicRoughness.png"
    },
    {
      "uri": "textures/Material_32_normal.png"
    }
  ],
  "materials": [
    {
      "doubleSided": true,
      "name": "Material_32",
      "normalTexture": {
        "index": 2
      },
      "occlusionTexture": {
        "index": 1
      },
      "pbrMetallicRoughness": {
        "baseColorTexture": {
          "index": 0
        },
        "metallicRoughnessTexture": {
          "index": 1
        }
      }
    }
  ],
  "meshes": [
    {
      "name": "Cylindre001_oPP_Material #32_0",
      "primitives": [
        {
          "attributes": {
            "NORMAL": 1,
            "POSITION": 0,
            "TANGENT": 2,
            "TEXCOORD_0": 3
          },
          "indices": 4,
          "material": 0,
          "mode": 4
        }
      ]
    }
  ],
  "nodes": [
    {
      "children": [
        1
      ],
      "matrix": [
        0.9117382168769836,
        0.0,
        0.0,
        0.0,
        0.0,
        2.0244655216150235e-16,
        -0.9117382168769836,
        0.0,
        0.0,
        0.9117382168769836,
        2.0244655216150235e-16,
        0.0,
        0.0,
        0.0,
        0.0,
        1.0
      ],
      "name": "Sketchfab_model"
    },
    {
      "children": [
        2
      ],
      "matrix": [
        0.009999999776482582,
        0.0,
        0.0,
        0.0,
        0.0,
        0.0,
        0.009999999776482582,
        0.0,
        0.0,
        -0.009999999776482582,
        0.0,
        0.0,
        0.0,
        0.0,
        0.0,
        1.0
      ],
      "name": "ae1800c408a04ee0a58d14d238dfd9b9.fbx"
    },
    {
      "children": [
        3
      ],
      "name": "RootNode"
    },
    {
      "children": [
        4
      ],
      "matrix": [
        1.0,
        0.0,
        0.0,
        0.0,
        0.0,
        2.220446049250313e-16,
        -1.0,
        0.0,
        0.0,
        1.0,
        2.220446049250313e-16,
        0.0,
        0.0,
        0.0,
        0.0,
        1.0
      ],
      "name": "Cylindre001_oPP"
    },
    {
      "mesh": 0,
      "name": "Cylindre001_oPP_Material #32_0"
    }
  ],
  "samplers": [
    {
      "magFilter": 9729,
      "minFilter": 9987,
      "wrapS": 10497,
      "wrapT": 10497
    }
  ],
  "scene": 0,
  "scenes": [
    {
      "name": "Sketchfab_Scene",
      "nodes": [
        0
      ]
    }
  ],
  "textures": [
    {
      "sampler": 0,
      "source": 0
    },
    {
      "sampler": 0,
      "source": 1
    },
    {
      "sampler": 0,
      "source": 2
    }
  ]
}
